HIERARCHY
ROOT Hips
{
	OFFSET 0.000000 0.000000 0.000000
	CHANNELS 6 Xposition Yposition Zposition Xrotation Yrotation Zrotation
	JOINT LeftUpLeg_virtual
	{
		OFFSET 0.000000 0.000000 0.000000
		CHANNELS 3 Xrotation Yrotation Zrotation
		JOINT LeftUpLeg
		{
			OFFSET 15.427100 -6.655098 0.678600
			CHANNELS 3 Xrotation Yrotation Zrotation
			JOINT LeftLeg
			{
				OFFSET 4.081073 -39.591068 13.024000
				CHANNELS 3 Xrotation Yrotation Zrotation
				JOINT LeftFoot
				{
					OFFSET -4.081074 -37.707932 -15.979700
					CHANNELS 3 Xrotation Yrotation Zrotation
					JOINT LeftToeBase
					{
						OFFSET 5.346399 -15.068900 20.645000
						CHANNELS 3 Xrotation Yrotation Zrotation
						JOINT LeftToe_End
						{
							OFFSET 2.754700 0.931300 11.300900
							CHANNELS 3 Xrotation Yrotation Zrotation
							End Site
							{
								OFFSET 0 0 0
							}
						}
					}
				}
			}
		}
	}
	JOINT RightUpLeg_virtual
	{
		OFFSET 0.000000 0.000000 0.000000
		CHANNELS 3 Xrotation Yrotation Zrotation
		JOINT RightUpLeg
		{
			OFFSET -15.569500 -6.655098 0.678600
			CHANNELS 3 Xrotation Yrotation Zrotation
			JOINT RightLeg
			{
				OFFSET -4.081825 -39.591045 13.023800
				CHANNELS 3 Xrotation Yrotation Zrotation
				JOINT RightFoot
				{
					OFFSET 4.081824 -37.707954 -15.979600
					CHANNELS 3 Xrotation Yrotation Zrotation
					JOINT RightToeBase
					{
						OFFSET -5.346400 -15.068900 20.645000
						CHANNELS 3 Xrotation Yrotation Zrotation
						JOINT RightToe_End
						{
							OFFSET -2.754700 0.931300 11.300900
							CHANNELS 3 Xrotation Yrotation Zrotation
							End Site
							{
								OFFSET 0 0 0
							}
						}
					}
				}
			}
		}
	}
	JOINT Spine_virtual
	{
		OFFSET 0.000000 0.000000 0.000000
		CHANNELS 3 Xrotation Yrotation Zrotation
		JOINT Spine
		{
			OFFSET -0.279200 12.230698 -2.892100
			CHANNELS 3 Xrotation Yrotation Zrotation
			JOINT Spine1
			{
				OFFSET -0.232667 10.192268 -1.242267
				CHANNELS 3 Xrotation Yrotation Zrotation
				JOINT Spine1_split
				{
					OFFSET -0.232667 10.192268 -1.242267
					CHANNELS 3 Xrotation Yrotation Zrotation
					JOINT Spine2
					{
						OFFSET -0.232667 10.192268 -1.242267
						CHANNELS 3 Xrotation Yrotation Zrotation
						JOINT Neck_virtual
						{
							OFFSET 0.000000 0.000000 0.000000
							CHANNELS 3 Xrotation Yrotation Zrotation
							JOINT Neck
							{
								OFFSET -0.418800 17.814194 8.416900
								CHANNELS 3 Xrotation Yrotation Zrotation
								JOINT Head
								{
									OFFSET 0.000000 7.031097 3.806800
									CHANNELS 3 Xrotation Yrotation Zrotation
									JOINT HeadTop_End
									{
										OFFSET 0.000000 24.646606 12.978600
										CHANNELS 3 Xrotation Yrotation Zrotation
										End Site
										{
											OFFSET 0 0 0
										}
									}
								}
							}
						}
						JOINT LeftShoulder_virtual
						{
							OFFSET 0.000000 0.000000 0.000000
							CHANNELS 3 Xrotation Yrotation Zrotation
							JOINT LeftShoulder
							{
								OFFSET 8.476499 7.247704 -3.868750
								CHANNELS 3 Xrotation Yrotation Zrotation
								JOINT LeftShoulder_split
								{
									OFFSET 8.476499 7.247704 -3.868750
									CHANNELS 3 Xrotation Yrotation Zrotation
									JOINT LeftArm
									{
										OFFSET 9.308998 -2.777710 0.208600
										CHANNELS 3 Xrotation Yrotation Zrotation
										JOINT LeftForeArm
										{
											OFFSET 29.972298 0.000000 0.000000
											CHANNELS 3 Xrotation Yrotation Zrotation
											JOINT LeftHand
											{
												OFFSET 26.026505 0.000000 0.000000
												CHANNELS 3 Xrotation Yrotation Zrotation
												End Site
												{
													OFFSET 0 0 0
												}
											}
										}
									}
								}
							}
						}
						JOINT RightShoulder_virtual
						{
							OFFSET 0.000000 0.000000 0.000000
							CHANNELS 3 Xrotation Yrotation Zrotation
							JOINT RightShoulder
							{
								OFFSET -7.570500 7.247704 -3.868750
								CHANNELS 3 Xrotation Yrotation Zrotation
								JOINT RightShoulder_split
								{
									OFFSET -7.570500 7.247704 -3.868750
									CHANNELS 3 Xrotation Yrotation Zrotation
									JOINT RightArm
									{
										OFFSET -9.308998 -2.777710 0.208500
										CHANNELS 3 Xrotation Yrotation Zrotation
										JOINT RightForeArm
										{
											OFFSET -29.972300 0.000000 0.000000
											CHANNELS 3 Xrotation Yrotation Zrotation
											JOINT RightHand
											{
												OFFSET -26.026505 0.000000 0.000000
												CHANNELS 3 Xrotation Yrotation Zrotation
												End Site
												{
													OFFSET 0 0 0
												}
											}
										}
									}
								}
							}
						}
					}
				}
			}
		}
	}
}
MOTION
Frames: 5
Frame Time: 0.03333333
4.701202 88.879974 0.065914 0.000000 0.000000 0.000000 -15.102230 -56.150565 -8.586950 -22.538832 -0.046946 14.503698 27.062155 -11.442845 -0.351942 4.355309 -8.310507 0.811693 -12.791119 -6.757629 3.111490 0.000000 0.000000 0.000000 -11.701221 -54.007607 -6.836452 4.784605 -10.023823 -20.139494 24.997283 4.778588 0.167987 -20.311618 -9.913219 30.104049 -2.812986 -1.158057 -0.767223 0.000000 0.000000 0.000000 -15.925785 -46.611099 -8.017353 6.482533 6.067578 -0.811931 10.728345 10.403493 -3.721669 0.456987 -1.711355 0.523149 0.000000 0.000000 0.000000 10.982887 9.526219 -4.106159 -5.904585 -3.655494 1.069259 -3.093497 20.551699 0.645300 0.000000 0.000000 0.000000 9.854128 9.381995 -3.426214 2.713614 1.445762 -3.663772 -5.819313 1.168534 -6.102803 -14.333212 -3.426102 -56.088667 2.150251 -54.049179 1.429115 0.000000 0.000000 0.000000 10.288365 9.888066 -3.060652 2.421646 8.439237 9.326733 -3.373747 4.995149 -0.350876 -1.059713 -28.034650 65.985385 -9.140414 51.946853 9.879977 0.000000 0.000000 0.000000 
4.995767 89.697876 -0.150333 0.000000 0.000000 0.000000 -14.420876 -56.003716 -8.105007 -22.741571 -0.012979 15.412363 26.759646 -11.654743 -0.426408 3.842562 -8.771981 3.079822 -11.781305 -6.240416 2.068911 0.000000 0.000000 0.000000 -11.024479 -53.294662 -6.524657 5.065428 -10.165120 -20.452103 22.469975 4.658535 -0.085046 -20.516480 -9.085911 28.228381 0.370863 -1.377908 -0.368802 0.000000 0.000000 0.000000 -15.742819 -46.821831 -8.361481 6.504435 5.996798 -0.677701 11.064389 10.385384 -3.684715 0.960592 -0.904012 0.452892 0.000000 0.000000 0.000000 11.020550 9.523592 -4.003191 -6.140965 -3.465674 1.200913 -2.939324 21.233849 0.411313 0.000000 0.000000 0.000000 10.363943 9.376676 -3.418594 2.735770 1.112416 -3.839558 -5.121645 1.321270 -5.871855 -12.938487 -2.153854 -57.169042 1.888138 -52.559317 1.416457 0.000000 0.000000 0.000000 10.846435 9.965102 -3.120759 2.344637 8.974091 10.171192 -4.031920 4.514414 -0.085894 -0.530604 -28.477108 65.681872 -8.718220 50.766672 9.633004 0.000000 0.000000 0.000000 
5.539585 89.922821 -1.349838 0.000000 0.000000 0.000000 -12.907087 -54.989703 -7.174775 -24.634633 -0.100832 17.073805 26.478272 -11.662783 -0.830793 4.235291 -8.733053 2.159865 -8.586662 -5.273873 0.495257 0.000000 0.000000 0.000000 -9.991230 -51.529788 -6.121270 3.251883 -10.408069 -20.334499 22.710388 5.050514 0.056391 -21.471705 -7.320748 23.229876 3.128948 -1.331285 -0.160151 0.000000 0.000000 0.000000 -15.180652 -46.100317 -8.444206 6.816074 5.594430 -0.785905 11.738366 10.240051 -3.642331 1.528199 -0.094352 0.448284 0.000000 0.000000 0.000000 11.425015 9.415137 -3.896339 -7.540100 -3.012265 1.487146 -2.973856 21.391886 0.226323 0.000000 0.000000 0.000000 11.190757 9.258878 -3.465089 2.695369 0.918231 -3.570571 -4.433212 0.977901 -4.451992 -12.386062 -0.679877 -59.588585 3.030942 -51.320829 2.847304 0.000000 0.000000 0.000000 11.815613 9.909342 -3.313322 2.430626 9.625847 11.076522 -4.357577 3.907042 0.015663 -1.378888 -26.770146 64.132813 -7.960632 49.902021 8.782335 0.000000 0.000000 0.000000 
6.118772 89.256760 -3.664436 0.000000 0.000000 0.000000 -10.999266 -53.622777 -6.213129 -27.770489 -0.351285 18.604882 26.051168 -11.162705 -1.106498 5.524464 -7.949941 -1.445408 -5.662409 -4.173173 -0.972480 0.000000 0.000000 0.000000 -8.443350 -49.053141 -5.447644 -0.730761 -11.093383 -19.673265 26.727543 6.031758 0.781398 -21.429198 -4.510354 16.447384 2.752400 -1.258871 -0.033638 0.000000 0.000000 0.000000 -13.915156 -44.770975 -7.965046 7.257534 4.855106 -1.095023 12.695481 9.929061 -3.586331 1.624063 0.153972 0.797538 0.000000 0.000000 0.000000 12.241687 9.160546 -3.802343 -9.982284 -2.339130 1.924808 -3.343039 21.015201 0.151451 0.000000 0.000000 0.000000 12.332777 8.988438 -3.546996 2.633567 0.997284 -2.861643 -3.857174 0.455567 -2.463848 -13.730679 0.229904 -62.522698 4.565376 -49.554655 4.822834 0.000000 0.000000 0.000000 13.082974 9.665972 -3.555844 2.645641 10.312280 11.683896 -4.417904 3.184598 -0.155377 -3.864256 -23.213118 61.547326 -7.103216 50.032153 7.443296 0.000000 0.000000 0.000000 
6.565801 87.548981 -6.601276 0.000000 0.000000 0.000000 -8.600486 -51.910544 -5.063283 -31.867750 -0.674240 19.486525 25.452164 -9.862043 -0.916505 7.552300 -6.847302 -6.009731 -4.682625 -3.128079 -1.856742 0.000000 0.000000 0.000000 -6.828567 -46.523400 -4.773821 -7.199923 -12.628403 -18.556038 33.974747 7.922642 1.845201 -18.876937 -1.018638 9.888986 -2.587801 -1.330888 -0.029492 0.000000 0.000000 0.000000 -11.779757 -42.848516 -6.862948 7.688904 3.892481 -1.532570 13.946516 9.405955 -3.513063 1.804505 0.206249 1.356774 0.000000 0.000000 0.000000 13.441538 8.699363 -3.739455 -13.338586 -1.625319 2.498140 -4.302840 19.900591 0.277368 0.000000 0.000000 0.000000 13.753010 8.507954 -3.665874 2.573307 1.251209 -1.877866 -3.450874 0.009293 -0.784758 -16.619211 0.112280 -64.996012 5.266798 -47.098522 6.242772 0.000000 0.000000 0.000000 14.546645 9.185476 -3.772144 2.984315 10.924727 11.678623 -4.603371 2.612192 -0.390882 -7.230121 -18.378352 58.527515 -6.370131 51.821963 5.689101 0.000000 0.000000 0.000000 
